<mxfile host="app.diagrams.net" modified="2024-07-04T14:53:53.974Z" agent="Mozilla/5.0 (Windows NT 10.0; Win64; x64; rv:127.0) Gecko/20100101 Firefox/127.0" version="24.6.4" etag="r5WoS8a0cpUwg5diLqAj" type="github">
  <diagram name="Page-1" id="LJjHULq9bKT8DJmdeaIu">
    <mxGraphModel>
      <root>
        <mxCell id="0" />
        <mxCell id="1" parent="0" />
      </root>
    </mxGraphModel>
  </diagram>
</mxfile>
